<mxfile host="app.diagrams.net" modified="2021-10-27T16:03:22.646Z" agent="5.0 (Windows NT 10.0; Win64; x64) AppleWebKit/537.36 (KHTML, like Gecko) Chrome/94.0.4606.81 Safari/537.36" etag="2yD2qKKwVSN0GxILm0as" version="15.5.9" type="github">
  <diagram id="RU7fy8Ae2b5yt3_EVa8W" name="Page-1">
    <mxGraphModel dx="1278" dy="521" grid="1" gridSize="10" guides="1" tooltips="1" connect="1" arrows="1" fold="1" page="1" pageScale="1" pageWidth="850" pageHeight="1100" math="0" shadow="0">
      <root>
        <mxCell id="0" />
        <mxCell id="1" parent="0" />
        <mxCell id="Ekz_worIwsVude7GtD2V-43" value="" style="rounded=0;whiteSpace=wrap;html=1;" vertex="1" parent="1">
          <mxGeometry x="160" y="330" width="180" height="80" as="geometry" />
        </mxCell>
        <mxCell id="Ekz_worIwsVude7GtD2V-22" value="" style="rounded=0;whiteSpace=wrap;html=1;" vertex="1" parent="1">
          <mxGeometry x="160" y="190" width="180" height="110" as="geometry" />
        </mxCell>
        <mxCell id="Ekz_worIwsVude7GtD2V-21" value="" style="rounded=0;whiteSpace=wrap;html=1;" vertex="1" parent="1">
          <mxGeometry x="380" y="410" width="380" height="530" as="geometry" />
        </mxCell>
        <mxCell id="Ekz_worIwsVude7GtD2V-20" value="" style="rounded=0;whiteSpace=wrap;html=1;" vertex="1" parent="1">
          <mxGeometry x="380" y="190" width="380" height="180" as="geometry" />
        </mxCell>
        <mxCell id="Ekz_worIwsVude7GtD2V-1" value="Driver" style="shape=umlActor;verticalLabelPosition=bottom;verticalAlign=top;html=1;outlineConnect=0;" vertex="1" parent="1">
          <mxGeometry x="60" y="210" width="30" height="60" as="geometry" />
        </mxCell>
        <mxCell id="Ekz_worIwsVude7GtD2V-6" value="Manage Essential Train Functions" style="ellipse;whiteSpace=wrap;html=1;verticalAlign=top;" vertex="1" parent="1">
          <mxGeometry x="190" y="220" width="120" height="40" as="geometry" />
        </mxCell>
        <mxCell id="Ekz_worIwsVude7GtD2V-11" value="Manage Service Brake" style="ellipse;whiteSpace=wrap;html=1;verticalAlign=top;" vertex="1" parent="1">
          <mxGeometry x="520" y="220" width="120" height="40" as="geometry" />
        </mxCell>
        <mxCell id="Ekz_worIwsVude7GtD2V-12" value="Manage Interior Temperature" style="ellipse;whiteSpace=wrap;html=1;verticalAlign=top;" vertex="1" parent="1">
          <mxGeometry x="620" y="440" width="120" height="40" as="geometry" />
        </mxCell>
        <mxCell id="Ekz_worIwsVude7GtD2V-14" value="Manage Headlights" style="ellipse;whiteSpace=wrap;html=1;verticalAlign=top;" vertex="1" parent="1">
          <mxGeometry x="580" y="490" width="120" height="40" as="geometry" />
        </mxCell>
        <mxCell id="Ekz_worIwsVude7GtD2V-15" value="Manage Train Speed&lt;br&gt;" style="ellipse;whiteSpace=wrap;html=1;verticalAlign=top;" vertex="1" parent="1">
          <mxGeometry x="600" y="270" width="120" height="40" as="geometry" />
        </mxCell>
        <mxCell id="Ekz_worIwsVude7GtD2V-16" value="Manage Doors" style="ellipse;whiteSpace=wrap;html=1;verticalAlign=top;" vertex="1" parent="1">
          <mxGeometry x="580" y="540" width="120" height="40" as="geometry" />
        </mxCell>
        <mxCell id="Ekz_worIwsVude7GtD2V-17" value="Manage Failures" style="ellipse;whiteSpace=wrap;html=1;verticalAlign=top;" vertex="1" parent="1">
          <mxGeometry x="510" y="310" width="120" height="40" as="geometry" />
        </mxCell>
        <mxCell id="Ekz_worIwsVude7GtD2V-18" value="Manage Announcements" style="ellipse;whiteSpace=wrap;html=1;verticalAlign=top;" vertex="1" parent="1">
          <mxGeometry x="530" y="590" width="120" height="40" as="geometry" />
        </mxCell>
        <mxCell id="Ekz_worIwsVude7GtD2V-19" value="Manage Beacon Message" style="ellipse;whiteSpace=wrap;html=1;verticalAlign=top;" vertex="1" parent="1">
          <mxGeometry x="420" y="630" width="120" height="40" as="geometry" />
        </mxCell>
        <mxCell id="Ekz_worIwsVude7GtD2V-23" value="Hardware UI" style="rounded=0;whiteSpace=wrap;html=1;" vertex="1" parent="1">
          <mxGeometry x="200" y="150" width="110" height="20" as="geometry" />
        </mxCell>
        <mxCell id="Ekz_worIwsVude7GtD2V-24" value="Manage Emergency Brake" style="ellipse;whiteSpace=wrap;html=1;verticalAlign=top;" vertex="1" parent="1">
          <mxGeometry x="410" y="190" width="120" height="40" as="geometry" />
        </mxCell>
        <mxCell id="Ekz_worIwsVude7GtD2V-25" value="Manage Non-Essential Train Functions" style="ellipse;whiteSpace=wrap;html=1;verticalAlign=top;" vertex="1" parent="1">
          <mxGeometry x="190" y="340" width="120" height="60" as="geometry" />
        </mxCell>
        <mxCell id="Ekz_worIwsVude7GtD2V-27" value="" style="endArrow=open;endFill=1;endSize=12;html=1;rounded=0;entryX=0;entryY=0.5;entryDx=0;entryDy=0;" edge="1" parent="1" target="Ekz_worIwsVude7GtD2V-25">
          <mxGeometry width="160" relative="1" as="geometry">
            <mxPoint x="80" y="240" as="sourcePoint" />
            <mxPoint x="240" y="240" as="targetPoint" />
          </mxGeometry>
        </mxCell>
        <mxCell id="Ekz_worIwsVude7GtD2V-28" value="" style="endArrow=open;endFill=1;endSize=12;html=1;rounded=0;entryX=0;entryY=0.5;entryDx=0;entryDy=0;" edge="1" parent="1" target="Ekz_worIwsVude7GtD2V-6">
          <mxGeometry width="160" relative="1" as="geometry">
            <mxPoint x="80" y="240" as="sourcePoint" />
            <mxPoint x="240" y="240" as="targetPoint" />
          </mxGeometry>
        </mxCell>
        <mxCell id="Ekz_worIwsVude7GtD2V-29" value="" style="endArrow=open;endFill=1;endSize=12;html=1;rounded=0;entryX=0;entryY=0.5;entryDx=0;entryDy=0;" edge="1" parent="1" target="Ekz_worIwsVude7GtD2V-24">
          <mxGeometry width="160" relative="1" as="geometry">
            <mxPoint x="310" y="240" as="sourcePoint" />
            <mxPoint x="470" y="240" as="targetPoint" />
          </mxGeometry>
        </mxCell>
        <mxCell id="Ekz_worIwsVude7GtD2V-30" value="" style="endArrow=open;endFill=1;endSize=12;html=1;rounded=0;entryX=0;entryY=0.5;entryDx=0;entryDy=0;exitX=1;exitY=0.5;exitDx=0;exitDy=0;" edge="1" parent="1" source="Ekz_worIwsVude7GtD2V-6" target="Ekz_worIwsVude7GtD2V-17">
          <mxGeometry width="160" relative="1" as="geometry">
            <mxPoint x="320" y="250" as="sourcePoint" />
            <mxPoint x="410" y="250" as="targetPoint" />
          </mxGeometry>
        </mxCell>
        <mxCell id="Ekz_worIwsVude7GtD2V-31" value="" style="endArrow=open;endFill=1;endSize=12;html=1;rounded=0;entryX=0;entryY=0.5;entryDx=0;entryDy=0;" edge="1" parent="1" target="Ekz_worIwsVude7GtD2V-11">
          <mxGeometry width="160" relative="1" as="geometry">
            <mxPoint x="310" y="240" as="sourcePoint" />
            <mxPoint x="520" y="340" as="targetPoint" />
          </mxGeometry>
        </mxCell>
        <mxCell id="Ekz_worIwsVude7GtD2V-32" value="" style="endArrow=open;endFill=1;endSize=12;html=1;rounded=0;entryX=0;entryY=0.5;entryDx=0;entryDy=0;" edge="1" parent="1" target="Ekz_worIwsVude7GtD2V-15">
          <mxGeometry width="160" relative="1" as="geometry">
            <mxPoint x="310" y="240" as="sourcePoint" />
            <mxPoint x="530" y="350" as="targetPoint" />
          </mxGeometry>
        </mxCell>
        <mxCell id="Ekz_worIwsVude7GtD2V-33" value="Train Controller" style="html=1;" vertex="1" parent="1">
          <mxGeometry x="517.5" y="150" width="115" height="20" as="geometry" />
        </mxCell>
        <mxCell id="Ekz_worIwsVude7GtD2V-34" value="" style="endArrow=open;endFill=1;endSize=12;html=1;rounded=0;entryX=0;entryY=0.5;entryDx=0;entryDy=0;" edge="1" parent="1" target="Ekz_worIwsVude7GtD2V-13">
          <mxGeometry width="160" relative="1" as="geometry">
            <mxPoint x="310" y="370" as="sourcePoint" />
            <mxPoint x="410" y="340" as="targetPoint" />
          </mxGeometry>
        </mxCell>
        <mxCell id="Ekz_worIwsVude7GtD2V-35" value="" style="endArrow=open;endFill=1;endSize=12;html=1;rounded=0;entryX=0;entryY=0.5;entryDx=0;entryDy=0;" edge="1" parent="1" target="Ekz_worIwsVude7GtD2V-12">
          <mxGeometry width="160" relative="1" as="geometry">
            <mxPoint x="310" y="370" as="sourcePoint" />
            <mxPoint x="410" y="340" as="targetPoint" />
          </mxGeometry>
        </mxCell>
        <mxCell id="Ekz_worIwsVude7GtD2V-13" value="Manage Cabin Lights" style="ellipse;whiteSpace=wrap;html=1;verticalAlign=top;" vertex="1" parent="1">
          <mxGeometry x="490" y="415" width="120" height="40" as="geometry" />
        </mxCell>
        <mxCell id="Ekz_worIwsVude7GtD2V-36" style="edgeStyle=orthogonalEdgeStyle;rounded=0;orthogonalLoop=1;jettySize=auto;html=1;exitX=0.5;exitY=1;exitDx=0;exitDy=0;" edge="1" parent="1" source="Ekz_worIwsVude7GtD2V-18" target="Ekz_worIwsVude7GtD2V-18">
          <mxGeometry relative="1" as="geometry" />
        </mxCell>
        <mxCell id="Ekz_worIwsVude7GtD2V-37" value="" style="endArrow=open;endFill=1;endSize=12;html=1;rounded=0;entryX=0;entryY=0.5;entryDx=0;entryDy=0;" edge="1" parent="1" target="Ekz_worIwsVude7GtD2V-14">
          <mxGeometry width="160" relative="1" as="geometry">
            <mxPoint x="310" y="370" as="sourcePoint" />
            <mxPoint x="410" y="340" as="targetPoint" />
          </mxGeometry>
        </mxCell>
        <mxCell id="Ekz_worIwsVude7GtD2V-38" value="" style="endArrow=open;endFill=1;endSize=12;html=1;rounded=0;entryX=0;entryY=0.5;entryDx=0;entryDy=0;" edge="1" parent="1" target="Ekz_worIwsVude7GtD2V-16">
          <mxGeometry width="160" relative="1" as="geometry">
            <mxPoint x="310" y="370" as="sourcePoint" />
            <mxPoint x="410" y="340" as="targetPoint" />
          </mxGeometry>
        </mxCell>
        <mxCell id="Ekz_worIwsVude7GtD2V-39" value="" style="endArrow=open;endFill=1;endSize=12;html=1;rounded=0;entryX=0;entryY=0.5;entryDx=0;entryDy=0;" edge="1" parent="1" target="Ekz_worIwsVude7GtD2V-18">
          <mxGeometry width="160" relative="1" as="geometry">
            <mxPoint x="310" y="370" as="sourcePoint" />
            <mxPoint x="410" y="340" as="targetPoint" />
          </mxGeometry>
        </mxCell>
        <mxCell id="Ekz_worIwsVude7GtD2V-41" value="" style="endArrow=open;endFill=1;endSize=12;html=1;rounded=0;entryX=-0.02;entryY=0.715;entryDx=0;entryDy=0;entryPerimeter=0;" edge="1" parent="1" target="Ekz_worIwsVude7GtD2V-19">
          <mxGeometry width="160" relative="1" as="geometry">
            <mxPoint x="310" y="370" as="sourcePoint" />
            <mxPoint x="410" y="340" as="targetPoint" />
          </mxGeometry>
        </mxCell>
        <mxCell id="Ekz_worIwsVude7GtD2V-42" value="MBO&lt;br&gt;" style="shape=umlActor;verticalLabelPosition=bottom;verticalAlign=top;html=1;outlineConnect=0;" vertex="1" parent="1">
          <mxGeometry x="60" y="670" width="30" height="60" as="geometry" />
        </mxCell>
        <mxCell id="Ekz_worIwsVude7GtD2V-44" value="Communication with Software UI" style="rounded=0;whiteSpace=wrap;html=1;" vertex="1" parent="1">
          <mxGeometry x="190" y="420" width="110" height="35" as="geometry" />
        </mxCell>
        <mxCell id="Ekz_worIwsVude7GtD2V-45" value="Train Model&lt;br&gt;" style="shape=umlActor;verticalLabelPosition=bottom;verticalAlign=top;html=1;outlineConnect=0;" vertex="1" parent="1">
          <mxGeometry x="60" y="820" width="30" height="60" as="geometry" />
        </mxCell>
        <mxCell id="Ekz_worIwsVude7GtD2V-46" value="Receive Train Location" style="ellipse;whiteSpace=wrap;html=1;verticalAlign=top;" vertex="1" parent="1">
          <mxGeometry x="410" y="700" width="120" height="40" as="geometry" />
        </mxCell>
        <mxCell id="Ekz_worIwsVude7GtD2V-47" value="Send schedule, suggested speed, authority" style="ellipse;whiteSpace=wrap;html=1;verticalAlign=top;" vertex="1" parent="1">
          <mxGeometry x="410" y="750" width="120" height="60" as="geometry" />
        </mxCell>
        <mxCell id="Ekz_worIwsVude7GtD2V-50" value="Receive train temp, power, doors, brakes, arrival" style="ellipse;whiteSpace=wrap;html=1;verticalAlign=top;" vertex="1" parent="1">
          <mxGeometry x="410" y="825" width="120" height="50" as="geometry" />
        </mxCell>
        <mxCell id="Ekz_worIwsVude7GtD2V-51" value="Send failures, speed" style="ellipse;whiteSpace=wrap;html=1;verticalAlign=top;" vertex="1" parent="1">
          <mxGeometry x="410" y="890" width="120" height="40" as="geometry" />
        </mxCell>
        <mxCell id="Ekz_worIwsVude7GtD2V-52" value="" style="endArrow=open;endFill=1;endSize=12;html=1;rounded=0;entryX=0;entryY=0.5;entryDx=0;entryDy=0;" edge="1" parent="1" source="Ekz_worIwsVude7GtD2V-42" target="Ekz_worIwsVude7GtD2V-47">
          <mxGeometry width="160" relative="1" as="geometry">
            <mxPoint x="240" y="536.4" as="sourcePoint" />
            <mxPoint x="347.5999999999999" y="824.9999999999999" as="targetPoint" />
          </mxGeometry>
        </mxCell>
        <mxCell id="Ekz_worIwsVude7GtD2V-53" value="" style="endArrow=open;endFill=1;endSize=12;html=1;rounded=0;entryX=0;entryY=0.5;entryDx=0;entryDy=0;" edge="1" parent="1" source="Ekz_worIwsVude7GtD2V-45" target="Ekz_worIwsVude7GtD2V-51">
          <mxGeometry width="160" relative="1" as="geometry">
            <mxPoint x="232.4" y="720" as="sourcePoint" />
            <mxPoint x="339.9999999999999" y="1008.5999999999999" as="targetPoint" />
          </mxGeometry>
        </mxCell>
        <mxCell id="Ekz_worIwsVude7GtD2V-54" value="" style="html=1;verticalAlign=bottom;endArrow=open;dashed=1;endSize=8;rounded=0;exitX=0;exitY=0.5;exitDx=0;exitDy=0;" edge="1" parent="1" source="Ekz_worIwsVude7GtD2V-46">
          <mxGeometry x="0.0545" y="-140" relative="1" as="geometry">
            <mxPoint x="340" y="680" as="sourcePoint" />
            <mxPoint x="90" y="700" as="targetPoint" />
            <mxPoint as="offset" />
          </mxGeometry>
        </mxCell>
        <mxCell id="Ekz_worIwsVude7GtD2V-55" value="" style="html=1;verticalAlign=bottom;endArrow=open;dashed=1;endSize=8;rounded=0;exitX=0;exitY=0.5;exitDx=0;exitDy=0;" edge="1" parent="1">
          <mxGeometry x="0.0545" y="-140" relative="1" as="geometry">
            <mxPoint x="410" y="850" as="sourcePoint" />
            <mxPoint x="90" y="850" as="targetPoint" />
            <mxPoint as="offset" />
          </mxGeometry>
        </mxCell>
      </root>
    </mxGraphModel>
  </diagram>
</mxfile>
